<svg width="32" height="32" viewBox="0 0 32 32" fill="none" xmlns="http://www.w3.org/2000/svg">
<rect x="0.5" y="0.5" width="31" height="31" stroke="black"/>
<path d="M15.9185 1.6875C16.4838 1.72697 16.9663 2.58623 17.2815 3.02889L18.5979 4.88359C19.1659 5.68692 20.3975 7.25754 20.7318 8.10509C20.9825 8.7414 20.841 13.6863 20.8638 14.7945C21.7301 14.5499 23.3518 14.0897 24.2569 14.1741C24.837 14.2281 25.1832 15.5679 25.5622 16.1423L25.5911 16.1857C26.2493 16.1179 27.2679 16.0481 27.0999 17.0635C26.9046 18.2454 26.5675 19.4101 26.361 20.5937C26.4492 20.6877 26.536 20.7826 26.6221 20.8785C26.999 21.3008 27.1963 21.8006 27.157 22.3717C27.1214 22.8923 26.8062 23.4033 26.3722 23.6903C26.1625 23.8291 25.9101 23.9358 25.7248 24.1064C25.7132 24.1171 25.7024 24.1285 25.6908 24.1395C25.3479 24.4711 25.3189 26.5628 24.868 27.064C24.6984 27.2523 22.8413 27.3929 22.4747 27.4528C21.3242 27.6405 20.086 28.0091 19.0621 28.5738C18.0816 29.1148 17.3175 30.1445 16.1549 30.2477C16.0592 30.2504 15.9635 30.2507 15.8678 30.2487C14.8036 30.2198 14.2363 29.4022 13.4073 28.8829C11.8533 27.9094 10.0334 27.4305 8.21658 27.3039C7.83064 27.277 7.12565 27.293 6.984 26.866C6.69151 25.9845 6.57497 25.0069 6.32125 24.1086C5.49703 23.6666 4.83114 23.3418 4.81281 22.2296C4.80102 21.513 5.12706 21.0948 5.60927 20.6094C5.51606 19.8667 5.23168 18.861 5.07311 18.1114C4.71154 16.4025 4.57464 16.1613 6.41859 16.1825C6.60468 15.7707 7.17045 14.4569 7.48127 14.2814C8.12768 13.9164 10.3443 14.6164 11.0905 14.7853C11.1655 12.6862 11.0305 10.5451 11.1189 8.44536C11.139 7.96914 12.0463 6.75534 12.3551 6.31732L13.9015 4.12532L14.9113 2.69441C15.2515 2.21331 15.3504 1.89845 15.9185 1.6875Z" fill="#2B2723"/>
<path d="M15.9386 4.83374C16.229 4.83907 17.0486 4.78901 17.2294 4.83283C17.2613 4.84048 17.2931 4.84809 17.325 4.85575C18.0332 5.83775 18.804 6.89343 19.4841 7.88524C19.681 8.17251 19.789 8.55564 19.8022 8.76158C19.8655 9.76779 19.873 10.9549 19.8494 11.9556C19.8283 12.8602 19.9044 14.211 19.8337 15.0586L19.2094 15.36C17.641 16.094 17.1024 16.5573 15.9619 17.871C15.5218 17.322 14.9421 16.6442 14.3453 16.2538C13.7958 15.9608 13.2523 15.6375 12.6989 15.3399C12.4859 15.2458 12.3193 15.1587 12.1139 15.0481C12.072 13.9387 12.1069 12.8149 12.1062 11.7041C12.1055 10.7822 12.0559 9.82806 12.1309 8.91023C12.1503 8.67131 12.1827 8.43042 12.2865 8.21182C12.4507 7.86604 14.381 5.08986 14.5929 4.92177C14.758 4.79079 14.8856 4.81226 15.0819 4.83307C15.3643 4.83469 15.657 4.84056 15.9386 4.83374Z" fill="#E6BA5E"/>
<path d="M12.1139 15.0894C12.072 13.9801 12.1069 12.8562 12.1062 11.7455C12.1055 10.8236 12.0559 9.86943 12.1309 8.95159C12.1503 8.71268 12.1827 8.47178 12.2865 8.25318C12.4507 7.90741 14.381 5.13123 14.5929 4.96314C14.758 4.83216 14.8856 4.85363 15.0819 4.87444C15.3643 4.87606 15.657 4.88193 15.9386 4.8751C15.9346 5.92214 15.9516 6.96918 15.9897 8.01559C15.7754 8.15733 14.7891 8.84593 14.6404 8.99636C14.6113 9.22778 14.5394 9.91614 14.4571 10.1062C14.928 10.6291 14.9866 11.0915 14.5164 11.6537L14.4806 11.697C14.4732 11.7054 14.4658 11.7139 14.4585 11.7224C14.5273 11.8992 14.5525 12.3783 14.4076 12.5108L14.3091 12.515C13.6359 12.6627 14.3231 14.0318 14.6138 14.3662C14.6184 14.7718 14.5794 16.0024 14.3453 16.2952C13.7958 16.0022 13.2523 15.6788 12.6989 15.3812C12.4859 15.2871 12.3193 15.2001 12.1139 15.0894Z" fill="#F0CF68"/>
<path d="M15.0819 4.87445C15.3643 4.87606 15.6571 4.88194 15.9386 4.87511C15.9346 5.92215 15.9516 6.96919 15.9897 8.0156C15.7755 8.15734 14.7891 8.84594 14.6404 8.99637C14.5148 8.85534 13.4774 8.05172 13.2566 7.8701C13.6996 7.21898 14.0886 6.50398 14.5185 5.8414C14.7175 5.53476 14.9191 5.19991 15.0819 4.87445Z" fill="#C7C1B6"/>
<path d="M12.1139 15.0894C12.072 13.9801 12.1069 12.8562 12.1062 11.7455C12.1055 10.8236 12.0559 9.86943 12.1309 8.95159C12.1503 8.71268 12.1827 8.47178 12.2865 8.25318C12.4507 7.90741 14.381 5.13123 14.5929 4.96314C14.758 4.83216 14.8856 4.85363 15.0819 4.87444C14.9191 5.1999 14.7175 5.53475 14.5185 5.84139C14.0886 6.50397 13.6996 7.21897 13.2566 7.8701C12.5572 8.85524 12.7427 9.85222 12.7449 11.0098L12.7318 13.9469C12.7325 14.2647 12.7511 15.0911 12.6989 15.3812C12.4859 15.2871 12.3193 15.2001 12.1139 15.0894Z" fill="white"/>
<path d="M14.4585 11.7224C12.7991 12.7203 12.5481 9.22276 14.4571 10.1062C14.928 10.6291 14.9866 11.0915 14.5164 11.6538L14.4806 11.697C14.4732 11.7055 14.4658 11.7139 14.4585 11.7224Z" fill="#2B2723"/>
<path d="M15.9386 4.87512C16.229 4.88045 17.0486 4.8304 17.2294 4.87421C17.09 4.87636 16.9597 4.86093 16.8434 4.92683C16.9241 5.10571 17.0246 5.26756 17.1314 5.43192C17.6501 6.23102 18.1387 7.06021 18.6745 7.84756C18.3034 8.15474 17.689 8.6856 17.3068 8.9265C16.8831 8.74798 16.3793 8.27926 15.9897 8.01561C15.9516 6.96919 15.9346 5.92215 15.9386 4.87512Z" fill="#CCB08A"/>
<path d="M17.2294 4.87418C17.2613 4.88183 17.2931 4.88945 17.325 4.8971C18.0332 5.8791 18.804 6.93479 19.4841 7.92659C19.681 8.21387 19.789 8.597 19.8022 8.80294C19.8655 9.80914 19.873 10.9963 19.8494 11.997C19.8283 12.9016 19.9044 14.2524 19.8337 15.0999L19.2094 15.4013C19.1444 13.153 19.2557 10.8753 19.1221 8.63535C19.1093 8.41882 18.8081 8.02824 18.6745 7.84754C18.1387 7.06018 17.6501 6.231 17.1314 5.43189C17.0246 5.26753 16.9241 5.10569 16.8434 4.9268C16.9597 4.8609 17.09 4.87633 17.2294 4.87418Z" fill="white"/>
<path d="M14.3091 12.515C15.0993 12.7964 15.5146 13.0775 16.3822 12.9006C16.6701 12.8936 17.284 12.5407 17.5306 12.5453C18.0415 12.5549 17.6464 13.6239 17.5628 13.8084C16.9758 15.1029 15.6373 15.381 14.6138 14.3662C14.3231 14.0318 13.6359 12.6627 14.3091 12.515Z" fill="#2B2723"/>
<path d="M15.5987 13.8733C15.8889 13.8524 16.6705 13.8158 16.6366 14.2498C16.5522 14.3957 16.4399 14.4272 16.2838 14.5021C15.9578 14.5396 15.5225 14.5412 15.2649 14.3067C15.1669 14.0418 15.3912 13.9744 15.5987 13.8733Z" fill="#CC423E"/>
<path d="M17.6679 9.99067C17.8193 9.98392 18.0159 9.96829 18.1569 10.0178C18.3894 10.1 18.581 10.2695 18.691 10.4905C18.9616 11.0382 18.7001 11.6081 18.1487 11.8377C18.0001 11.8644 17.8847 11.8788 17.7354 11.8447C17.4983 11.7925 17.2948 11.6408 17.1773 11.4284C17.0453 11.1883 17.0147 10.9058 17.0908 10.643C17.1951 10.2873 17.3697 10.1568 17.6679 9.99067Z" fill="#2B2723"/>
<path d="M18.0237 19.6875C19.4477 18.4267 21.8898 17.6418 23.7535 17.3549C24.4903 17.2415 25.2428 17.2043 25.9879 17.1664C25.9775 17.4111 25.9544 17.5749 25.9171 17.8182C25.7922 18.4667 25.5535 19.6216 25.381 20.2516C24.1895 20.3498 23.2554 21.123 23.3754 22.3902C23.4221 22.8857 23.667 23.3414 24.0547 23.654C24.2044 23.777 24.4357 23.9037 24.6078 24.0012C24.5106 24.4702 24.2388 25.8432 24.0844 26.24C21.7673 26.4385 20.06 26.7968 18.0072 28.0007C17.9654 25.4586 18.0154 22.9225 17.9774 20.3964C17.9753 20.1645 18.0026 19.9198 18.0237 19.6875Z" fill="#F0CF68"/>
<path d="M18.0237 19.6875C19.4477 18.4267 21.8898 17.6418 23.7535 17.3549C24.4903 17.2415 25.2428 17.2043 25.9879 17.1664C25.9775 17.4111 25.9544 17.5749 25.9171 17.8182C25.3471 17.8877 24.7956 17.9 24.2226 17.9826C21.6999 18.346 20.0496 18.9969 17.9774 20.3964C17.9753 20.1645 18.0026 19.9198 18.0237 19.6875Z" fill="white"/>
<path d="M6.09314 17.8577C6.0272 17.645 5.93031 17.4268 6.01644 17.226C6.18155 17.1785 6.31993 17.1958 6.48938 17.2028C8.95327 17.304 12.1019 18.0333 13.9709 19.7605L13.9804 20.4182C13.9473 22.8629 14.0609 25.5976 13.9609 28.0019C13.5605 27.8235 13.1477 27.5447 12.7127 27.3492C11.1245 26.6352 9.63054 26.3684 7.91401 26.2621C7.76297 25.9203 7.49989 24.5255 7.36759 24.0335C7.5497 23.9016 7.80405 23.7992 7.97238 23.6627C8.72904 23.0491 8.88186 21.8481 8.2901 21.0723C7.82366 20.4607 7.33259 20.3482 6.63244 20.2376C6.42067 19.5246 6.28638 18.6138 6.09314 17.8577Z" fill="#E6BA5E"/>
<path d="M6.09314 17.8577C6.0272 17.645 5.93031 17.4268 6.01644 17.226C6.18155 17.1785 6.31993 17.1958 6.48938 17.2028C8.95327 17.304 12.1019 18.0333 13.9709 19.7605L13.9804 20.4182C11.379 18.6076 9.22494 18.0553 6.09314 17.8577Z" fill="white"/>
<path d="M15.0225 21.0358C15.0118 20.8619 14.9688 20.5499 15.1398 20.465C15.5521 20.5544 15.9466 20.6011 16.3659 20.5455C16.5176 20.5253 16.7193 20.464 16.848 20.4752C16.922 20.595 16.9117 20.7573 16.92 20.9053C16.9663 21.2698 16.9634 28.5804 16.879 28.8502C16.7685 28.981 16.7057 29.0019 16.5564 29.0821C16.1481 29.1867 15.5416 29.2686 15.1893 28.9539C15.1383 28.9083 15.0691 28.8172 15.0657 28.7469C15.0249 27.9008 15.0429 27.0429 15.0435 26.1945L15.0225 21.0358Z" fill="#E6BA5E"/>
<path d="M16.92 20.9053C16.9663 21.2697 16.9634 28.5803 16.879 28.8502C16.7685 28.981 16.7057 29.0019 16.5564 29.0821C16.3871 28.8641 16.2953 28.2881 16.2841 28.0186C16.19 25.7544 16.3534 23.4608 16.2562 21.1998C16.4698 21.1655 16.8368 21.1177 16.92 20.9053Z" fill="#F0CF68"/>
<path d="M15.0225 21.0358C15.0118 20.8619 14.9688 20.5499 15.1398 20.465C15.5521 20.5544 15.9466 20.6011 16.3659 20.5455C16.5176 20.5253 16.7193 20.464 16.848 20.4752C16.922 20.595 16.9117 20.7573 16.92 20.9053C16.8368 21.1177 16.4698 21.1655 16.2562 21.1998C15.6944 21.2269 15.5581 21.1743 15.0225 21.0358Z" fill="white"/>
<path d="M23.5566 15.2387L23.9636 15.2059C24.0931 15.5255 24.2905 15.9171 24.441 16.2357C21.6188 16.4751 19.3157 17.3825 17.1045 19.1102C16.9365 19.2301 16.7251 19.4378 16.521 19.3772L16.497 19.2769C16.6134 18.7412 17.2819 17.9134 17.6936 17.5619C19.3265 16.1672 21.4756 15.5673 23.5566 15.2387Z" fill="white"/>
<path d="M8.02265 15.2103C10.2494 15.3316 13.6289 16.488 14.9767 18.3772C15.0919 18.5386 15.5017 19.2106 15.469 19.3848C15.3232 19.4133 15.3118 19.3812 15.1582 19.3245C14.7017 19.0373 14.1755 18.5771 13.6732 18.2396C12.0689 17.1619 9.46017 16.3735 7.54486 16.2518C7.66728 15.9368 7.87458 15.5238 8.02265 15.2103Z" fill="white"/>
</svg>
